<svg width="28" height="42" viewBox="0 0 28 42" fill="none" xmlns="http://www.w3.org/2000/svg">
<path d="M7.71966 0.510665C7.44941 0.453934 7.18434 0.627027 7.12761 0.897279C7.07088 1.16753 7.24397 1.4326 7.51422 1.48933L7.71966 0.510665ZM6.1327 38.5725L11.5543 40.5575L10.5625 34.8698L6.1327 38.5725ZM10.9948 2.58597C11.2495 2.69269 11.5425 2.57275 11.6492 2.31806C11.7559 2.06337 11.636 1.7704 11.3813 1.66367L10.9948 2.58597ZM17.8546 5.69706C17.6454 5.51674 17.3297 5.54009 17.1494 5.74923C16.9691 5.95836 16.9924 6.27408 17.2015 6.45441L17.8546 5.69706ZM21.8911 12.0468C22.029 12.286 22.3348 12.3681 22.574 12.2302C22.8132 12.0922 22.8953 11.7864 22.7573 11.5472L21.8911 12.0468ZM25.0667 18.853C25.0488 18.5774 24.811 18.3685 24.5354 18.3863C24.2599 18.4041 24.0509 18.642 24.0688 18.9176L25.0667 18.853ZM22.9013 25.5107C22.7982 25.7668 22.9222 26.0581 23.1783 26.1613C23.4345 26.2644 23.7258 26.1404 23.8289 25.8842L22.9013 25.5107ZM20.4065 31.51C20.5852 31.2994 20.5594 30.9839 20.3489 30.8052C20.1384 30.6265 19.8229 30.6523 19.6442 30.8628L20.4065 31.51ZM14.9131 34.9945C14.6806 35.1435 14.6129 35.4528 14.7619 35.6853C14.9109 35.9178 15.2202 35.9855 15.4527 35.8365L14.9131 34.9945ZM9.4348 38.5024C9.70179 38.4319 9.86105 38.1583 9.79053 37.8913C9.72001 37.6243 9.4464 37.4651 9.17942 37.5356L9.4348 38.5024ZM7.51422 1.48933C8.67356 1.7327 9.84241 2.10308 10.9948 2.58597L11.3813 1.66367C10.1752 1.15829 8.94585 0.768064 7.71966 0.510665L7.51422 1.48933ZM17.2015 6.45441C19.0719 8.06714 20.6922 9.96807 21.8911 12.0468L22.7573 11.5472C21.4967 9.36128 19.8009 7.37526 17.8546 5.69706L17.2015 6.45441ZM24.0688 18.9176C24.1454 20.1021 24.0683 21.3047 23.8148 22.5123L24.7935 22.7177C25.0662 21.4185 25.149 20.1249 25.0667 18.853L24.0688 18.9176ZM23.8148 22.5123C23.5987 23.5417 23.2908 24.5436 22.9013 25.5107L23.8289 25.8842C24.2396 24.8646 24.5649 23.8064 24.7935 22.7177L23.8148 22.5123ZM19.6442 30.8628C18.2827 32.4664 16.6766 33.8643 14.9131 34.9945L15.4527 35.8365C17.2986 34.6535 18.98 33.1902 20.4065 31.51L19.6442 30.8628Z" fill="#82588B"/>
</svg>
