<svg width="13" height="12" viewBox="0 0 13 12" fill="none" xmlns="http://www.w3.org/2000/svg">
<path d="M12.0761 4.36953C11.9603 4.00612 11.6605 3.76617 11.2724 3.72698L8.45913 3.47017C8.26826 3.45311 8.11489 3.34082 8.038 3.16154L6.92039 0.56186C6.7666 0.215095 6.43816 0 6.0638 0C5.68164 0 5.35278 0.21657 5.20616 0.564177L4.08939 3.16196C4.0127 3.34103 3.85913 3.45332 3.66784 3.47039L0.846739 3.7274C0.468374 3.76638 0.169431 4.00486 0.045346 4.36974C-0.0690485 4.7283 0.0364977 5.10878 0.322378 5.3639L2.44784 7.22644C2.59215 7.35369 2.65051 7.5336 2.60837 7.71962L1.98141 10.4781C1.8963 10.8498 2.03513 11.2197 2.34419 11.4434C2.64503 11.6615 3.05289 11.6794 3.37121 11.49L5.80446 10.0431C5.96836 9.9422 6.15565 9.94052 6.32545 10.045L8.75575 11.4898C8.90259 11.5772 9.06818 11.6236 9.23482 11.6236C9.43138 11.6236 9.61951 11.5608 9.77688 11.4437C10.0859 11.2197 10.225 10.8498 10.1401 10.479L9.51902 7.71962C9.47667 7.5336 9.53524 7.3539 9.67913 7.22686L11.8037 5.35884C12.0943 5.10751 12.1981 4.72725 12.0761 4.36953Z" fill="#FFB934"/>
</svg>
